<svg xmlns="http://www.w3.org/2000/svg" fill="none" viewBox="0 0 24 24" id="Okta--Streamline-Svg-Logos" height="24" width="24">
  <desc>
    Okta Streamline Icon: https://streamlinehq.com
  </desc>
  <path fill="#000000" d="M21.546325 13.2179c-0.65635 0 -1.119025 -0.512175 -1.119025 -1.18575 0 -0.67355 0.462675 -1.185725 1.119025 -1.185725s1.1061 0.512175 1.1061 1.185725c0 0.673575 -0.4562 1.18575 -1.1061 1.18575Zm-0.10545 0.705825c0.5294 0 0.97915 -0.206575 1.2632 -0.639125 0.0538 0.419625 0.357225 0.572425 0.740275 0.572425h0.305575v-0.66495h-0.13125c-0.21735 0 -0.27115 -0.10545 -0.27115 -0.352925V10.20945h-0.70155v0.54015c-0.23885 -0.37875 -0.688625 -0.60685 -1.2051 -0.60685 -0.921025 0 -1.76675 0.77255 -1.76675 1.8894 0 1.116875 0.847875 1.889425 1.76675 1.889425v0.00215ZM17.82775 13.0113c0 0.59825 0.370125 0.845725 0.813425 0.845725h0.854325v-0.66495h-0.6219c-0.25825 0 -0.31205 -0.099 -0.31205 -0.352925v-1.96475h0.93395v-0.66495h-0.93395v-1.224475H17.82775v4.026325Zm-3.342 0.845725h0.733825v-1.564475h0.245325l1.250275 1.564475h0.9275l-1.5946 -1.9841 1.22445 -1.663475h-0.82635l-1.00065 1.405225h-0.22595V8.984975H14.48575v4.87205ZM12.103525 10.14275c-1.026475 0 -1.8722 0.77255 -1.8722 1.8894 0 1.116875 0.847875 1.889425 1.8722 1.889425 1.024325 0 1.8722 -0.77255 1.8722 -1.889425 0 -1.11685 -0.847875 -1.8894 -1.8722 -1.8894Zm0 3.07515c-0.65635 0 -1.119025 -0.512175 -1.119025 -1.18575 0 -0.67355 0.462675 -1.185725 1.119025 -1.185725s1.119025 0.512175 1.119025 1.185725c0 0.673575 -0.462675 1.18575 -1.119025 1.18575Z" stroke-width="0.25"></path>
  <path fill="#000000" d="m4.509325 8.180275 -0.15925 1.962575c-0.0753 -0.0086 -0.150625 -0.0129 -0.2281 -0.0129 -0.09685 0 -0.191525 0.00645 -0.28405 0.0215l-0.0904 -0.95115c-0.00215 -0.030125 0.021525 -0.05595 0.05165 -0.05595h0.1614l-0.077475 -0.961925c-0.00215 -0.030125 0.021525 -0.05595 0.0495 -0.05595h0.527225c0.030125 0 0.0538 0.025825 0.0495 0.05595v-0.00215Zm-1.3299 0.096825c-0.008625 -0.027975 -0.03875 -0.0452 -0.066725 -0.034425l-0.49495 0.18075c-0.027975 0.010775 -0.040875 0.04305 -0.027975 0.068875l0.402425 0.878 -0.1528 0.05595c-0.027975 0.01075 -0.040875 0.04305 -0.027975 0.06885l0.411025 0.86295c0.1485 -0.081775 0.309875 -0.144175 0.4799 -0.182925l-0.520775 -1.898025h-0.00215Zm-1.213715 0.5466 1.13839 1.60535c-0.144175 0.0947 -0.27545 0.2066 -0.38735 0.335725l-0.6821775 -0.671425c-0.02152 -0.021525 -0.0193675 -0.05595 0.0021525 -0.0753l0.1248125 -0.1033 -0.6778675 -0.686475c-0.02152 -0.021525 -0.0193675 -0.05595 0.004305 -0.075325l0.402415 -0.33785c0.0236725 -0.019375 0.0559525 -0.015075 0.0731675 0.0086h0.0021525Zm-0.95547 0.92965c-0.0236725 -0.017225 -0.058105 -0.0086 -0.0731675 0.0172l-0.26254 0.456225c-0.0150625 0.025825 -0.0043025 0.0581 0.02152 0.071025l0.873695 0.413175 -0.0817725 0.139875c-0.015065 0.025825 -0.004305 0.06025 0.02367 0.071l0.8693925 0.398125c0.0624075 -0.1614 0.1463375 -0.312025 0.2496375 -0.4476l-1.620435 -1.119025Zm-0.6434375 1.239525c0.004305 -0.030125 0.0344325 -0.04735 0.0624075 -0.040875l1.904485 0.4971c-0.049495 0.1614 -0.07747 0.3314 -0.081775 0.50785l-0.9533175 -0.077475c-0.0301275 -0.00215 -0.0516475 -0.030125 -0.0451925 -0.06025l0.027975 -0.15925 -0.961925 -0.090375c-0.0301275 -0.00215 -0.049495 -0.030125 -0.0451925 -0.06025l0.0903825 -0.518625 0.0021525 0.00215Zm-0.071015 1.286875c-0.0301275 0.00215 -0.0494945 0.030125 -0.04519 0.06025l0.092535 0.518625c0.0043025 0.030125 0.03443 0.04735 0.062405 0.040875l0.9339525 -0.24315 0.027975 0.159225c0.0043025 0.03015 0.03443 0.04735 0.062405 0.0409l0.92104 -0.253925c-0.0538 -0.15925 -0.08823 -0.32925 -0.0968375 -0.503575l-1.9604375 0.180775h0.0021525Zm0.30558 1.36435c-0.015065 -0.025825 -0.004305 -0.058125 0.0215175 -0.071025l1.77752 -0.843575c0.06671 0.15925 0.157095 0.30775 0.264695 0.44115l-0.7790125 0.555225c-0.0236725 0.0172 -0.058105 0.01075 -0.0731675 -0.015075l-0.081775 -0.142025 -0.7940725 0.54875c-0.0236725 0.0172 -0.0581025 0.0086 -0.0731675 -0.017225l-0.26469 -0.4562h0.0021525Zm2.1541075 -0.37015 -1.3837075 1.400925c-0.02152 0.021525 -0.0193675 0.05595 0.004305 0.075325l0.4045675 0.33785c0.0236725 0.019375 0.0559525 0.015075 0.0731675 -0.0086l0.55951 -0.787625 0.1248075 0.10545c0.023675 0.019375 0.0581 0.015075 0.075325 -0.01075l0.5423 -0.787625c-0.14635 -0.090375 -0.281925 -0.200125 -0.398125 -0.32495h-0.00215ZM2.48218 15.52275c-0.027975 -0.01075 -0.0408875 -0.04305 -0.027975 -0.06885l0.819895 -1.79045c0.15065 0.077475 0.314175 0.135575 0.4842 0.16785l-0.241025 0.92535c-0.00645 0.027975 -0.03875 0.0452 -0.066725 0.034425l-0.152775 -0.05595 -0.256075 0.9318c-0.008625 0.027975 -0.03875 0.0452 -0.066725 0.03445l-0.4949475 -0.180775 0.0021525 0.00215Zm1.411695 -1.667775 -0.15925 1.9626c-0.00215 0.030125 0.021525 0.05595 0.0495 0.05595h0.527225c0.030125 0 0.0538 -0.025825 0.0495 -0.05595l-0.077475 -0.961925h0.1614c0.030125 0 0.0538 -0.025825 0.05165 -0.05595l-0.0904 -0.951175c-0.092525 0.015075 -0.187225 0.021525 -0.28405 0.021525 -0.077475 0 -0.1528 -0.0043 -0.2281 -0.015075Zm1.898025 -5.313175c0.0129 -0.027975 0 -0.0581 -0.027975 -0.068875l-0.49495 -0.18075c-0.027975 -0.010775 -0.0581 0.00645 -0.066725 0.034425l-0.256075 0.9318 -0.1528 -0.05595c-0.027975 -0.010775 -0.0581 0.00645 -0.0667 0.034425l-0.241025 0.92535c0.17215 0.034425 0.33355 0.092525 0.4842 0.16785l0.82205 -1.788275Zm1.080275 0.78115 -1.3837 1.400925c-0.116225 -0.1248 -0.249625 -0.23455 -0.398125 -0.32495l0.5423 -0.7876c0.017225 -0.023675 0.05165 -0.030125 0.075325 -0.010775l0.1248 0.10545 0.559525 -0.787625c0.0172 -0.02365 0.05165 -0.027975 0.07315 -0.0086l0.404575 0.33785c0.023675 0.019375 0.023675 0.0538 0.0043 0.075325h-0.00215Zm0.748875 1.1018c0.027975 -0.0129 0.0366 -0.045175 0.021525 -0.071l-0.264675 -0.456225c-0.015075 -0.025825 -0.0495 -0.032275 -0.073175 -0.017225l-0.794075 0.54875 -0.081775 -0.139875c-0.015075 -0.025825 -0.0495 -0.034425 -0.073175 -0.01505l-0.779 0.5552c0.1076 0.133425 0.195825 0.2819 0.2647 0.44115l1.7775 -0.843575 0.00215 -0.00215Zm0.279775 0.71445 0.090375 0.518625c0.0043 0.030125 -0.015075 0.05595 -0.0452 0.06025l-1.960425 0.182925c-0.0086 -0.17645 -0.04305 -0.3443 -0.09685 -0.50355l0.92105 -0.253925c0.027975 -0.008625 0.0581 0.01075 0.0624 0.040875l0.027975 0.15925 0.93395 -0.243175c0.027975 -0.00645 0.0581 0.01075 0.0624 0.040875l0.004325 -0.00215Zm-0.08825 1.9045c0.027975 0.00645 0.058125 -0.010775 0.062425 -0.0409l0.090375 -0.518625c0.0043 -0.030125 -0.015075 -0.05595 -0.0452 -0.06025l-0.961925 -0.090375 0.027975 -0.15925c0.0043 -0.030125 -0.01505 -0.05595 -0.045175 -0.06025l-0.953325 -0.077475c-0.0043 0.17645 -0.032275 0.346475 -0.081775 0.507875l1.904475 0.4971 0.00215 0.00215Zm-0.50785 1.183575c-0.015075 0.025825 -0.0495 0.032275 -0.073175 0.0172l-1.620425 -1.119c0.1033 -0.135575 0.187225 -0.286225 0.249625 -0.447625l0.8694 0.398125c0.027975 0.0129 0.038725 0.0452 0.023675 0.071l-0.081775 0.1399 0.8737 0.413175c0.025825 0.0129 0.036575 0.045175 0.0215 0.071l-0.262525 0.456225Zm-2.167025 -0.66065 1.138375 1.60535c0.017225 0.023675 0.05165 0.027975 0.073175 0.008625l0.402425 -0.337875c0.023675 -0.01935 0.023675 -0.0538 0.0043 -0.0753l-0.677875 -0.686475 0.124825 -0.1033c0.023675 -0.019375 0.023675 -0.0538 0.00215 -0.075325l-0.682175 -0.6714c-0.11405 0.1291 -0.243175 0.24315 -0.38735 0.3357h0.00215Zm-0.01075 2.186375c-0.027975 0.010775 -0.058125 -0.00645 -0.066725 -0.034425l-0.520775 -1.898025c0.17 -0.038725 0.3314 -0.10115 0.4799 -0.182925l0.411025 0.86295c0.0129 0.027975 0 0.06025 -0.027975 0.06885l-0.1528 0.05595 0.402425 0.878c0.0129 0.027975 0 0.0581 -0.027975 0.068875l-0.49495 0.18075h-0.00215Z" stroke-width="0.25"></path>
</svg>